HIERARCHY
ROOT Hips
{
	OFFSET 0.000000 0.000000 0.000000
	CHANNELS 6 Xposition Yposition Zposition Zrotation Yrotation Xrotation 
	JOINT LHipJoint
	{
		OFFSET 0.000000 0.000000 0.000000
		CHANNELS 3 Zrotation Yrotation Xrotation
		JOINT LeftUpLeg
		{
			OFFSET 1.363060 -1.794630 0.839290
			CHANNELS 3 Zrotation Yrotation Xrotation
			JOINT LeftLeg
			{
				OFFSET 2.448110 -6.726130 0.000000
				CHANNELS 3 Zrotation Yrotation Xrotation
				JOINT LeftFoot
				{
					OFFSET 2.562200 -7.039590 0.000000
					CHANNELS 3 Zrotation Yrotation Xrotation
					JOINT LeftToeBase
					{
						OFFSET 0.157640 -0.433110 2.322550
						CHANNELS 3 Zrotation Yrotation Xrotation
						End Site
						{
							OFFSET 0.000000 0.000000 0.000000
						}
					}
				}
			}
		}
	}
	JOINT RHipJoint
	{
		OFFSET 0.000000 0.000000 0.000000
		CHANNELS 3 Zrotation Yrotation Xrotation
		JOINT RightUpLeg
		{
			OFFSET -1.305520 -1.794630 0.839290
			CHANNELS 3 Zrotation Yrotation Xrotation
			JOINT RightLeg
			{
				OFFSET -2.542530 -6.985550 0.000000
				CHANNELS 3 Zrotation Yrotation Xrotation
				JOINT RightFoot
				{
					OFFSET -2.568260 -7.056230 0.000000
					CHANNELS 3 Zrotation Yrotation Xrotation
					JOINT RightToeBase
					{
						OFFSET -0.164730 -0.452590 2.363150
						CHANNELS 3 Zrotation Yrotation Xrotation
						End Site
						{
							OFFSET 0.000000 0.000000 0.000000
						}
					}
				}
			}
		}
	}
}
MOTION
Frames: 25
Frame Time: 0.008333
0.745723 17.414564 1.735056 8.351939 -48.327404 9.997728 -9.051589 1.994453 8.378563 -4.347353 -19.083509 -17.174455 -2.568617 -1.663445 -4.545961 -0.138967 2.279008 9.159860 1.236600 -0.000001 -49.059800 11.462171 -2.750177 -2.231618 2.842807 -31.775902 -6.780710 2.003263 1.178815 -5.166350 -3.066574 -21.165677 10.384454 -7.850200 -0.000001 -70.738700
0.753480 17.410457 1.747222 8.194476 -48.163483 9.989465 -9.067635 1.996520 8.364888 -4.268561 -19.285026 -16.939890 -2.536255 -1.645797 -4.573187 -0.120066 2.336962 8.973802 1.235900 0.000000 -48.978300 11.409900 -2.706787 -2.298958 2.791097 -31.571269 -6.715604 1.949092 1.124437 -4.451532 -3.151089 -21.547254 10.098951 -7.903000 0.000000 -70.788400
0.759640 17.406834 1.758812 8.011785 -48.023104 9.999645 -9.064659 2.004049 8.352567 -4.212680 -19.394624 -16.711512 -2.517934 -1.638827 -4.623620 -0.110025 2.356848 8.821265 1.229000 0.000001 -48.919400 11.382369 -2.676926 -2.334772 2.770439 -31.373101 -6.727421 1.899651 1.067629 -3.709862 -3.231817 -21.888658 9.803419 -7.932300 -0.000000 -70.809300
0.764019 17.403647 1.770165 7.837265 -47.915059 10.022149 -9.058876 2.012522 8.337870 -4.180319 -19.425092 -16.504633 -2.508203 -1.638293 -4.694064 -0.106908 2.342270 8.701666 1.216000 0.000000 -48.882801 11.362507 -2.652986 -2.354752 2.773419 -31.195345 -6.811614 1.857901 1.010427 -2.962964 -3.306728 -22.187765 9.514983 -7.944000 0.000000 -70.855599
0.766243 17.401017 1.781787 7.629930 -47.800830 10.070102 -9.027955 2.030413 8.336509 -4.159329 -19.398722 -16.316221 -2.512037 -1.648692 -4.781260 -0.112363 2.293005 8.616482 1.198400 -0.000000 -48.864900 11.373511 -2.647810 -2.343354 2.805373 -31.057729 -6.953721 1.824216 0.954829 -2.235514 -3.373512 -22.443089 9.247492 -7.942300 0.000000 -70.914500
0.766411 17.398744 1.793966 7.474470 -47.729971 10.120699 -9.015216 2.046738 8.334269 -4.154920 -19.336067 -16.166931 -2.514574 -1.657661 -4.886572 -0.119312 2.229026 8.559544 1.177900 -0.000000 -48.865200 11.367823 -2.634758 -2.340119 2.845449 -30.966192 -7.148820 1.802361 0.903019 -1.533054 -3.428803 -22.638583 8.995945 -7.921999 -0.000000 -70.931900
0.764439 17.396829 1.807036 7.332709 -47.669719 10.181808 -8.999166 2.066901 8.342391 -4.161864 -19.264417 -16.154874 -2.514091 -1.656485 -4.784661 -0.132794 2.146854 8.403320 1.155499 0.000000 -48.882100 11.366613 -2.624706 -2.330308 2.895514 -30.928151 -7.376771 1.789341 0.856636 -0.879127 -3.473038 -22.791913 8.789144 -7.900700 0.000000 -71.004399
0.760343 17.395157 1.821207 7.203557 -47.614289 10.253490 -8.979880 2.094350 8.365596 -4.169036 -19.197353 -16.186238 -2.514530 -1.655045 -4.664173 -0.147682 2.056987 8.249435 1.132400 0.000000 -48.906400 11.369583 -2.617321 -2.315185 2.952873 -30.941354 -7.623926 1.784987 0.816850 -0.278791 -3.505418 -22.895951 8.608583 -7.869500 -0.000000 -71.042699
0.754549 17.393575 1.836601 7.085950 -47.562281 10.331504 -8.958598 2.129081 8.404474 -4.171635 -19.151252 -16.241889 -2.514692 -1.653500 -4.549213 -0.161831 1.969592 8.105342 1.110599 -0.000000 -48.937600 11.374893 -2.610873 -2.298474 3.010853 -31.002442 -7.876581 1.787095 0.783473 0.263126 -3.527031 -22.962607 8.469308 -7.839400 -0.000000 -71.111500
0.747238 17.391918 1.853178 6.980180 -47.514197 10.413775 -8.935609 2.170793 8.458591 -4.165394 -19.137262 -16.313378 -2.513321 -1.651503 -4.442023 -0.173457 1.893736 7.965145 1.091800 0.000001 -48.970000 11.381702 -2.604533 -2.281454 3.065747 -31.100701 -8.123213 1.793709 0.756415 0.747100 -3.539072 -22.997858 8.368214 -7.811800 0.000000 -71.219500
0.739021 17.390034 1.870782 6.881208 -47.471156 10.495578 -8.911212 2.218254 8.524682 -4.149889 -19.156315 -16.387627 -2.510049 -1.648979 -4.346550 -0.182237 1.831456 7.825284 1.075800 0.000000 -48.996900 11.389517 -2.597889 -2.265333 3.112478 -31.223886 -8.350589 1.803140 0.735000 1.178104 -3.542486 -23.002313 8.292007 -7.782200 0.000000 -71.315100
0.730289 17.387862 1.889254 6.787054 -47.436923 10.574717 -8.886380 2.269666 8.599274 -4.124407 -19.208401 -16.455356 -2.504163 -1.645927 -4.263090 -0.187148 1.789577 7.680195 1.064100 0.000000 -49.014700 11.397482 -2.590729 -2.250614 3.147882 -31.357341 -8.551306 1.813315 0.718070 1.561843 -3.539096 -22.983833 8.239992 -7.753300 0.000000 -71.416100
0.721410 17.385333 1.908300 6.696570 -47.415949 10.648638 -8.861907 2.322904 8.678075 -4.089854 -19.288222 -16.508380 -2.495534 -1.642620 -4.191729 -0.187883 1.771757 7.525920 1.057399 -0.000000 -49.018700 11.405226 -2.583342 -2.236836 3.169746 -31.485164 -8.719179 1.822357 0.704490 1.903697 -3.530744 -22.948881 8.208291 -7.726200 -0.000000 -71.524600
0.712809 17.382441 1.927657 6.605937 -47.412204 10.715506 -8.838757 2.375549 8.756420 -4.048815 -19.387234 -16.539383 -2.484282 -1.639365 -4.132031 -0.184548 1.779727 7.360157 1.055799 0.000000 -49.004800 11.412320 -2.576313 -2.223103 3.176575 -31.591991 -8.849256 1.828577 0.693172 2.207326 -3.519408 -22.905043 8.194576 -7.702799 -0.000000 -71.652600
0.704718 17.379249 1.946986 6.514806 -47.428913 10.772953 -8.817495 2.425448 8.829756 -4.005460 -19.494102 -16.542901 -2.471065 -1.636667 -4.083161 -0.177334 1.812605 7.182198 1.059300 -0.000000 -48.970600 11.418900 -2.570488 -2.208505 3.167122 -31.667063 -8.938413 1.831224 0.683156 2.476856 -3.506072 -22.852971 8.191339 -7.680400 0.000000 -71.764900
0.697340 17.375844 1.966115 6.421047 -47.468641 10.822419 -8.799130 2.470913 8.895345 -3.961623 -19.600193 -16.518481 -2.456162 -1.634860 -4.044521 -0.166730 1.870411 6.993623 1.067600 0.000001 -48.914900 11.424494 -2.566810 -2.191649 3.143859 -31.702078 -8.988815 1.829641 0.673796 2.712296 -3.492196 -22.800315 8.204268 -7.663999 0.000000 -71.905100
0.690649 17.372337 1.984766 6.326460 -47.531754 10.862449 -8.783804 2.510771 8.950394 -3.922232 -19.695090 -16.465362 -2.440579 -1.634371 -4.015432 -0.153269 1.948780 6.796931 1.079900 0.000000 -48.836800 11.429553 -2.565995 -2.171894 3.107043 -31.694685 -9.000265 1.823937 0.664842 2.912941 -3.478171 -22.746848 8.229554 -7.651800 -0.000001 -72.049699
0.684551 17.368811 2.002713 6.232943 -47.617694 10.891743 -8.771053 2.544593 8.993399 -3.892169 -19.771058 -16.384592 -2.425295 -1.635419 -3.993622 -0.137747 2.043748 6.595740 1.095100 0.000000 -48.738200 11.434940 -2.568516 -2.148341 3.056940 -31.645211 -8.974069 1.814454 0.656421 3.076750 -3.464286 -22.692162 8.262606 -7.642200 -0.000000 -72.183000
0.678894 17.365376 2.019831 6.141338 -47.725263 10.911082 -8.760581 2.572648 9.024763 -3.873240 -19.824116 -16.281294 -2.410890 -1.638041 -3.977834 -0.120779 2.151345 6.394433 1.112600 -0.000001 -48.620800 11.440987 -2.574635 -2.120477 2.996425 -31.558447 -8.915020 1.801890 0.648879 3.201062 -3.450658 -22.637589 8.305041 -7.636100 0.000000 -72.309200
0.673522 17.362150 2.036110 6.054023 -47.851660 10.920453 -8.752006 2.595750 9.045349 -3.867801 -19.852215 -16.159594 -2.397915 -1.642061 -3.967106 -0.103154 2.266368 6.197048 1.131200 -0.000000 -48.489100 11.447952 -2.583946 -2.089219 2.927121 -31.445156 -8.827640 1.787495 0.642719 3.283915 -3.436709 -22.580546 8.355435 -7.632100 0.000000 -72.418300
0.668100 17.359156 2.051487 5.975593 -47.994487 10.918369 -8.744551 2.615281 9.056831 -3.877866 -19.855082 -16.023852 -2.386920 -1.647216 -3.959460 -0.085496 2.383854 6.006906 1.149800 -0.000000 -48.343200 11.456563 -2.595901 -2.055305 2.849373 -31.317259 -8.716456 1.772127 0.638380 3.323970 -3.421982 -22.520685 8.417071 -7.631200 -0.000000 -72.523600
0.662496 17.356482 2.066057 5.905046 -48.151597 10.907624 -8.737207 2.632620 9.062327 -3.901551 -19.836754 -15.882618 -2.377870 -1.653265 -3.953326 -0.068077 2.502189 5.826479 1.168600 0.000000 -48.191300 11.467060 -2.609758 -2.018506 2.767379 -31.182763 -8.589917 1.756803 0.636658 3.322011 -3.406676 -22.458798 8.484058 -7.631700 -0.000001 -72.608400
0.656413 17.354101 2.079907 5.845437 -48.320852 10.889499 -8.729447 2.649347 9.064492 -3.937624 -19.800795 -15.741185 -2.370779 -1.659903 -3.947483 -0.051303 2.618117 5.656893 1.187000 0.000001 -48.037500 11.479541 -2.624627 -1.979621 2.683487 -31.052389 -8.455473 1.742426 0.637938 3.280854 -3.390611 -22.395148 8.556166 -7.633500 0.000000 -72.678501
0.649843 17.352031 2.093067 5.799648 -48.501499 10.859530 -8.721181 2.666408 9.063841 -3.988089 -19.747603 -15.599877 -2.365750 -1.666461 -3.938913 -0.035766 2.727905 5.497558 1.204200 -0.000000 -47.879499 11.493920 -2.639012 -1.941333 2.595005 -30.938868 -8.315579 1.729645 0.641963 3.206086 -3.373090 -22.326763 8.632869 -7.635300 0.000001 -72.728500
0.642645 17.350253 2.105803 5.764780 -48.693792 10.826353 -8.712337 2.684903 9.064038 -4.045907 -19.683781 -15.467792 -2.362016 -1.672991 -3.928362 -0.021197 2.832917 5.348056 1.220700 0.000000 -47.728299 11.509355 -2.652605 -1.902181 2.510613 -30.841964 -8.183204 1.718959 0.649128 3.103838 -3.355301 -22.259722 8.710438 -7.638300 0.000000 -72.768700
